# xmcd
#
# Track frame offsets: 
#        150
#        10027
#        30847
#        48002
#        65087
#        80545
#        90587
#        110740
#        128102
#        152420
#        173280
#        190030
#        210445
#        233907
#        256395
#
# Disc length: 3627 seconds
#
# Revision: 0
# Processed by: cddbd v1.5.2PL0 Copyright (c) Steve Scherf et al.
# Submitted via: ExactAudioCopy v0.95a5
#
DISCID=ab0e290f
DTITLE=Nas - Stillmatic
DYEAR=2001
DGENRE=Hip-Hop
TTITLE0=Stillmatic (The Intro)
TTITLE1=Ether
TTITLE2=Got Ur Self A...
TTITLE3=Smokin'
TTITLE4=You're Da Man
TTITLE5=Rewind
TTITLE6=One Mic
TTITLE7=2nd Childhood
TTITLE8=Destroy and Rebuild
TTITLE9=The Flyest (Feat. AZ)
TTITLE10=Braveheart Party (Feat. Mary J. Blige)
TTITLE11=Rule (Feat. Amerie)
TTITLE12=My Country
TTITLE13=What Goes Around
TTITLE14=Every Ghetto
EXTD=
EXTT0=
EXTT1=
EXTT2=
EXTT3=
EXTT4=
EXTT5=
EXTT6=
EXTT7=
EXTT8=
EXTT9=
EXTT10=
EXTT11=
EXTT12=
EXTT13=
EXTT14=
PLAYORDER=
